<svg xmlns="http://www.w3.org/2000/svg" style="display:none">
  <!-- Path data adapted from Lucide (ISC License); no runtime dependency. -->
  <symbol id="home" viewBox="0 0 24 24" fill="none" stroke="currentColor" stroke-width="1.5" stroke-linecap="round" stroke-linejoin="round">
    <path d="M3 10.5 12 3l9 7.5"/><path d="M5 9.5V21h14V9.5"/><path d="M9 21v-6h6v6"/>
  </symbol>
  <symbol id="book" viewBox="0 0 24 24" fill="none" stroke="currentColor" stroke-width="1.5" stroke-linecap="round" stroke-linejoin="round">
    <path d="M4 19.5A2.5 2.5 0 0 1 6.5 17H20"/><path d="M6.5 2H20v20H6.5A2.5 2.5 0 0 1 4 19.5v-15A2.5 2.5 0 0 1 6.5 2z"/>
  </symbol>
  <symbol id="target" viewBox="0 0 24 24" fill="none" stroke="currentColor" stroke-width="1.5" stroke-linecap="round" stroke-linejoin="round">
    <circle cx="12" cy="12" r="9"/><circle cx="12" cy="12" r="5"/><circle cx="12" cy="12" r="1"/>
  </symbol>
  <symbol id="sparkles" viewBox="0 0 24 24" fill="none" stroke="currentColor" stroke-width="1.5" stroke-linecap="round" stroke-linejoin="round">
    <path d="M12 3l1.9 5.1L19 10l-5.1 1.9L12 17l-1.9-5.1L5 10l5.1-1.9z"/><path d="M19 15l.8 2.2L22 18l-2.2.8L19 21l-.8-2.2L16 18l2.2-.8z"/>
  </symbol>
  <symbol id="chart" viewBox="0 0 24 24" fill="none" stroke="currentColor" stroke-width="1.5" stroke-linecap="round" stroke-linejoin="round">
    <path d="M3 3v18h18"/><path d="M7 15l4-5 3 3 5-7"/>
  </symbol>
  <symbol id="clipboard-check" viewBox="0 0 24 24" fill="none" stroke="currentColor" stroke-width="1.5" stroke-linecap="round" stroke-linejoin="round">
    <rect x="8" y="3" width="8" height="4" rx="1"/><path d="M16 5h2a2 2 0 0 1 2 2v12a2 2 0 0 1-2 2H6a2 2 0 0 1-2-2V7a2 2 0 0 1 2-2h2"/><path d="m9 14 2 2 4-4"/>
  </symbol>
  <symbol id="menu" viewBox="0 0 24 24" fill="none" stroke="currentColor" stroke-width="1.5" stroke-linecap="round" stroke-linejoin="round">
    <path d="M4 6h16M4 12h16M4 18h16"/>
  </symbol>
  <symbol id="chevron-right" viewBox="0 0 24 24" fill="none" stroke="currentColor" stroke-width="1.5" stroke-linecap="round" stroke-linejoin="round">
    <path d="m9 6 6 6-6 6"/>
  </symbol>
  <symbol id="close" viewBox="0 0 24 24" fill="none" stroke="currentColor" stroke-width="1.5" stroke-linecap="round" stroke-linejoin="round">
    <path d="M6 6 18 18M18 6 6 18"/>
  </symbol>
  <symbol id="check" viewBox="0 0 24 24" fill="none" stroke="currentColor" stroke-width="1.5" stroke-linecap="round" stroke-linejoin="round">
    <path d="M20 6 9 17l-5-5"/>
  </symbol>
  <symbol id="x" viewBox="0 0 24 24" fill="none" stroke="currentColor" stroke-width="1.5" stroke-linecap="round" stroke-linejoin="round">
    <path d="M6 6 18 18M18 6 6 18"/>
  </symbol>
  <symbol id="alert-triangle" viewBox="0 0 24 24" fill="none" stroke="currentColor" stroke-width="1.5" stroke-linecap="round" stroke-linejoin="round">
    <path d="M12 3 2 20h20z"/><path d="M12 9v5"/><path d="M12 17h.01"/>
  </symbol>
  <symbol id="info" viewBox="0 0 24 24" fill="none" stroke="currentColor" stroke-width="1.5" stroke-linecap="round" stroke-linejoin="round">
    <circle cx="12" cy="12" r="9"/><path d="M12 11v5"/><path d="M12 8h.01"/>
  </symbol>
  <symbol id="external-link" viewBox="0 0 24 24" fill="none" stroke="currentColor" stroke-width="1.5" stroke-linecap="round" stroke-linejoin="round">
    <path d="M14 4h6v6"/><path d="M20 4 10 14"/><path d="M18 13v6a1 1 0 0 1-1 1H5a1 1 0 0 1-1-1V7a1 1 0 0 1 1-1h6"/>
  </symbol>
  <symbol id="arrow-right" viewBox="0 0 24 24" fill="none" stroke="currentColor" stroke-width="1.5" stroke-linecap="round" stroke-linejoin="round">
    <path d="M5 12h14"/><path d="m13 6 6 6-6 6"/>
  </symbol>
  <symbol id="dot" viewBox="0 0 24 24" fill="currentColor" stroke="none">
    <circle cx="12" cy="12" r="4"/>
  </symbol>
</svg>
